<?xml version="1.0" encoding="iso-8859-1"?>
<!-- Uploaded to: SVG Repo, www.svgrepo.com, Generator: SVG Repo Mixer Tools -->
<svg height="800px" width="800px" version="1.1" id="Layer_1" xmlns="http://www.w3.org/2000/svg" xmlns:xlink="http://www.w3.org/1999/xlink" 
	 viewBox="0 0 512 512" xml:space="preserve">
<circle style="fill:#FFD15D;" cx="256" cy="256" r="256"/>
<path style="fill:#F9B54C;" d="M292.457,509.404c106.601-15.201,192.029-96.059,214.018-200.318l-63.791-63.591l-4.361-0.16
	l-17.832-1.833l-43.96-11.205l-231.865,1.724l-40.457-42.231l-44.877,6.89l42.667,42.667l-37.804,40.167L292.457,509.404z"/>
<path style="fill:#C1321F;" d="M105.772,195.548c0-2.941-2.384-5.327-5.327-5.327H63.643c-2.941,0-5.327,2.384-5.327,5.327
	s2.384,5.327,5.327,5.327h11.235l14.429,19.047h13.236l-14.429-19.047h12.331C103.388,200.875,105.772,198.49,105.772,195.548z"/>
<g>
	<circle style="fill:#324A5E;" cx="144.515" cy="272.549" r="26.148"/>
	<circle style="fill:#324A5E;" cx="392.12" cy="272.549" r="26.148"/>
</g>
<path style="fill:#A82116;" d="M452.811,285.134c0,0,12.267-48.425-47.133-55.203l-14.205-6.134l-56.494-3.229
	c0,0-55.203-38.74-116.864-36.48c-61.661,2.26-110.73,28.086-110.73,28.086s-39.708-0.322-40.676,4.52
	c-0.969,4.842-9.038,49.393-5.811,59.723c3.108,9.947,22.085,17.193,53.46,9.361c-1.781-4.051-2.777-8.525-2.777-13.234
	c0-18.185,14.743-32.928,32.928-32.928s32.928,14.743,32.928,32.928c0,8.592-3.293,16.412-8.683,22.275h199.118
	c-5.389-5.863-8.683-13.684-8.683-22.275c0-18.185,14.743-32.928,32.928-32.928c18.185,0,32.928,14.743,32.928,32.928
	c0,8.592-3.293,16.412-8.683,22.275h39.674C456.04,294.819,462.496,286.425,452.811,285.134z"/>
<path style="fill:#841712;" d="M452.811,285.134c0,0,12.267-48.425-47.133-55.203l-14.205-6.134l-56.494-3.229
	c0,0-35.166-24.652-80.703-33.47v107.72h113.599c-5.389-5.863-8.683-13.684-8.683-22.275c0-18.185,14.743-32.928,32.928-32.928
	c18.185,0,32.928,14.743,32.928,32.928c0,8.592-3.293,16.412-8.683,22.275h39.674C456.04,294.819,462.496,286.425,452.811,285.134z"
	/>
<path style="fill:#FC6F58;" d="M218.115,184.089c-21.388,0.784-41.255,4.405-58.09,8.799l29.893,27.681h145.062
	C334.979,220.569,279.776,181.829,218.115,184.089z"/>
<path style="fill:#F1543F;" d="M254.276,187.099v33.47h80.703C334.979,220.569,299.813,195.917,254.276,187.099z"/>
</svg>